<svg xmlns="http://www.w3.org/2000/svg" viewBox="0 0 64 64" width="64" height="64">
  <!-- AirTalk 심볼: 말풍선(대화) 안의 음성 파형 — 음성 대화 번역을 한 형태로 표현 -->
  <defs>
    <linearGradient id="g" x1="0" y1="0" x2="1" y2="1">
      <stop offset="0" stop-color="#5b4fe8"/>
      <stop offset="1" stop-color="#8b7cff"/>
    </linearGradient>
  </defs>
  <rect x="2" y="2" width="60" height="60" rx="18" fill="url(#g)"/>
  <path d="M32 13.5c-10.8 0-19.5 7.2-19.5 16.1 0 5.1 2.9 9.7 7.5 12.6-.25 2.5-1.3 4.7-3.1 6.6-.5.55-.1 1.45.65 1.35 4-.5 7.3-2.05 9.85-4 1.5.25 3 .4 4.6.4 10.8 0 19.5-7.2 19.5-16.1S42.8 13.5 32 13.5z" fill="#fff"/>
  <g fill="url(#g)">
    <rect x="21.6" y="26.4" width="3.8" height="7.2" rx="1.9"/>
    <rect x="27.4" y="22.4" width="3.8" height="15.2" rx="1.9"/>
    <rect x="33.2" y="24.8" width="3.8" height="10.4" rx="1.9"/>
    <rect x="39" y="27.2" width="3.8" height="5.6" rx="1.9"/>
  </g>
</svg>
