<svg xmlns="http://www.w3.org/2000/svg" viewBox="0 0 99.2 99.2"><defs><style>.cls-1{fill:#6a6c6b;}.cls-2{fill:#fff;}.cls-3{fill:none;}</style></defs><g id="Layer_2" data-name="Layer 2"><g id="Layer_1-2" data-name="Layer 1"><rect class="cls-1" width="99.2" height="99.2" rx="14.06"/><g id="Layer_2-2" data-name="Layer 2"><g id="레이어_4" data-name="레이어 4"><polygon class="cls-2" points="67.32 18.88 67.32 32.16 54.03 32.16 54.03 45.45 40.74 45.45 40.74 58.74 27.45 58.74 27.45 72.03 14.17 72.03 14.17 76.45 31.88 76.45 31.88 63.17 45.17 63.17 45.17 49.88 58.46 49.88 58.46 36.59 71.75 36.59 71.75 23.31 85.03 23.31 85.03 18.88 67.32 18.88"/><polygon class="cls-2" points="42.47 33.63 42.47 18.88 27.72 18.88 27.72 23.31 34.91 23.31 23.02 35.19 26.16 38.32 38.04 26.44 38.04 33.61 42.47 33.63"/><polygon class="cls-2" points="56.73 61.71 56.73 76.45 71.48 76.45 71.48 72.03 64.29 72.03 76.17 60.14 73.05 57.01 61.16 68.9 61.16 61.72 56.73 61.71"/><rect class="cls-3" x="14.17" y="14.17" width="70.87" height="70.87"/></g></g></g></g></svg>