<svg xmlns="http://www.w3.org/2000/svg" viewBox="0 0 45.3 70.2"><defs><style>.cls-1{fill:#a70638;fill-rule:evenodd;}.cls-2{fill:none;}</style></defs><g id="레이어_2" data-name="레이어 2"><g id="레이어_4" data-name="레이어 4"><path d="M12.28,48.37H10.15V46.8h6.16v1.57H14.17v6.31H12.28Z"/><path d="M23.72,52.87H21.4l-.46,1.81H19l2.45-7.88h2.26l2.45,7.88h-2Zm-.35-1.46-.17-.67C23,50,22.78,49,22.57,48.21h0c-.19.82-.4,1.75-.61,2.53l-.16.67Z"/><path d="M30.62,50.62,28.57,46.8h2.11l.64,1.41c.17.37.35.78.57,1.29h0c.18-.51.35-.92.51-1.29L33,46.8h2l-2,3.91,2.17,4H33l-.73-1.54c-.19-.41-.37-.82-.58-1.31h0c-.19.49-.36.9-.54,1.31l-.68,1.54h-2Z"/><path class="cls-1" d="M21.61,15.52a8.93,8.93,0,0,0-8.93,8.93c0,6.23,8.93,16.07,8.93,16.07s8.93-9.75,8.93-16.07A8.93,8.93,0,0,0,21.61,15.52Zm0,14.06a5.21,5.21,0,1,1,5.21-5.2A5.2,5.2,0,0,1,21.61,29.58Z"/><rect class="cls-2" width="45.3" height="70.2"/></g></g></svg>