<?xml version="1.0" encoding="utf-8"?>
<!-- Generator: Adobe Illustrator 24.2.0, SVG Export Plug-In . SVG Version: 6.00 Build 0)  -->
<svg version="1.1" id="Layer_1" xmlns="http://www.w3.org/2000/svg" xmlns:xlink="http://www.w3.org/1999/xlink" x="0px" y="0px"
	 viewBox="0 0 45.3 70.2" style="enable-background:new 0 0 45.3 70.2;" xml:space="preserve">
<style type="text/css">
	.st0{fill:#231915;}
	.st1{fill:#972037;}
</style>
<g id="Layer_2_1_">
	<g id="레이어_1">
		<path class="st0" d="M29.8,53.6C29.4,53.2,29,53,28.4,53h-1.6v-1.1H15.2v3.5c0,1.9,0.9,3.7,2.5,4.8h-2.5v1h11.7v-1h-2.5
			c0.5-0.4,1-0.8,1.4-1.4h1.1c1.3,0,2.5-0.9,2.8-2.3l0.4-1.5C30.2,54.5,30.1,54,29.8,53.6L29.8,53.6z M29.1,54.7l-0.4,1.5
			c-0.2,0.8-0.9,1.4-1.8,1.4h-0.5c0.3-0.8,0.5-1.6,0.5-2.4V54h1.6C28.8,54,29.1,54.3,29.1,54.7C29.1,54.7,29.1,54.7,29.1,54.7
			L29.1,54.7z"/>
		<path class="st0" d="M21,47.5c-0.9,0-1.7,0.8-1.7,1.7v1.2h1v-1.2c0-0.4,0.3-0.7,0.7-0.7c0,0,0,0,0,0h4.7c2.3,0,4.1-1.8,4.1-4.1
			l0,0v-1h-1v1c0,1.7-1.3,3-3,3.1c0,0,0,0,0,0H21z"/>
		<path class="st0" d="M18.1,49.4c0-1.7,1.3-3,3-3.1h4.7c0.9,0,1.7-0.8,1.7-1.7v-1.2h-1v1.2c0,0.4-0.3,0.7-0.7,0.7c0,0,0,0,0,0H21
			c-2.3,0-4.1,1.8-4.1,4c0,0,0,0,0,0v1h1.1V49.4z"/>
		<path class="st1" d="M22.8,9h-0.2c-6.9,0.1-12.4,5.7-12.4,12.6c0,9.3,10.9,18.1,12.5,19.4c1.6-1.3,12.5-10.1,12.5-19.4
			C35.2,14.8,29.6,9.1,22.8,9z M22.8,27.1c-3.6,0-6.5-2.9-6.5-6.5s2.9-6.5,6.5-6.5s6.5,2.9,6.5,6.5S26.3,27.1,22.8,27.1L22.8,27.1z"
			/>
	</g>
</g>
</svg>
