<?xml version="1.0" encoding="utf-8"?>
<!-- Generator: Adobe Illustrator 24.2.0, SVG Export Plug-In . SVG Version: 6.00 Build 0)  -->
<svg version="1.1" id="Layer_1" xmlns="http://www.w3.org/2000/svg" xmlns:xlink="http://www.w3.org/1999/xlink" x="0px" y="0px"
	 viewBox="0 0 45.3 70.2" style="enable-background:new 0 0 45.3 70.2;" xml:space="preserve">
<style type="text/css">
	.st0{fill:#231915;}
	.st1{fill:#972037;}
</style>
<g id="Layer_2_1_">
	<g id="레이어_1">
		<rect x="13.8" y="48.6" class="st0" width="2.7" height="8.1"/>
		<rect x="13.8" y="59.1" class="st0" width="2.7" height="2.1"/>
		<rect x="17.6" y="43.5" class="st0" width="10.2" height="9.5"/>
		<rect x="13.8" y="54" class="st0" width="17.6" height="4.1"/>
		<rect x="28.8" y="48.6" class="st0" width="2.7" height="8.1"/>
		<rect x="28.8" y="59.1" class="st0" width="2.7" height="2.1"/>
		<path class="st1" d="M22.8,9h-0.2c-6.9,0.1-12.4,5.7-12.4,12.6c0,9.3,10.9,18.1,12.5,19.4c1.6-1.3,12.5-10.1,12.5-19.4
			C35.2,14.7,29.6,9.1,22.8,9z M22.8,27.1c-3.6,0-6.5-2.9-6.5-6.5s2.9-6.5,6.5-6.5s6.5,2.9,6.5,6.5S26.3,27.1,22.8,27.1L22.8,27.1z"
			/>
	</g>
</g>
</svg>
