<?xml version="1.0" encoding="utf-8"?>
<!-- Generator: Adobe Illustrator 24.2.0, SVG Export Plug-In . SVG Version: 6.00 Build 0)  -->
<svg version="1.1" id="Layer_1" xmlns="http://www.w3.org/2000/svg" xmlns:xlink="http://www.w3.org/1999/xlink" x="0px" y="0px"
	 viewBox="0 0 45.3 70.2" style="enable-background:new 0 0 45.3 70.2;" xml:space="preserve">
<style type="text/css">
	.st0{fill:#972037;}
	.st1{fill:#231915;}
</style>
<g id="Layer_2_1_">
	<g id="레이어_1">
		<path class="st0" d="M22.8,9.1h-0.2c-6.9,0.1-12.4,5.7-12.4,12.6c0,9.3,10.9,18.1,12.5,19.4c1.6-1.3,12.5-10.1,12.5-19.4
			C35.2,14.8,29.6,9.2,22.8,9.1z M22.8,27.1c-3.6,0-6.5-2.9-6.5-6.5s2.9-6.5,6.5-6.5s6.5,2.9,6.5,6.5S26.3,27.1,22.8,27.1L22.8,27.1
			z"/>
		<path class="st1" d="M25.6,48.7h1v-2.4c0-1.5-1.2-2.8-2.8-2.8c-0.4,0-0.8,0.1-1.2,0.3c-0.4-0.2-0.8-0.3-1.2-0.3h-0.2
			c-1.5,0-2.8,1.2-2.8,2.8v2.4h1v-2.4c0-1,0.8-1.7,1.8-1.8c0.1,0,0.3,0,0.4,0c-0.4,0.5-0.6,1.1-0.6,1.7v2.4h-1.6v2.1h-1v-2h-2
			l-0.6,12.4h9.7V48.7h-1.4v2.1h-1v-2.1h-1v-2.4c0-0.5,0.2-0.9,0.5-1.2c0.3,0.3,0.5,0.8,0.5,1.2v2.4h1v-2.4c0-0.6-0.2-1.2-0.6-1.7
			h0.3c1,0,1.7,0.8,1.7,1.7V48.7z"/>
		<path class="st1" d="M26.6,61.1h2.8l-0.6-12.4h-2.3L26.6,61.1z"/>
	</g>
</g>
</svg>
