<svg xmlns="http://www.w3.org/2000/svg" viewBox="0 0 99.2 99.2"><defs><style>.cls-1{fill:#6a6c6b;}.cls-2{fill:#fff;}.cls-3{fill:none;}</style></defs><g id="Layer_2" data-name="Layer 2"><g id="Layer_1-2" data-name="Layer 1"><rect class="cls-1" width="99.2" height="99.2" rx="14.06"/><path class="cls-2" d="M51.83,49.89H47.37a5.55,5.55,0,0,0-5.57,5.54V70h3.34V82.2h8.92V70H57.4V55.45a5.56,5.56,0,0,0-5.55-5.56Z"/><path class="cls-2" d="M54.06,43.19a4.46,4.46,0,1,0-4.46,4.45h0A4.46,4.46,0,0,0,54.06,43.19Z"/><path class="cls-2" d="M22.07,17V82.2h4.59V30.05H72.54V82.2h4.58V17Zm50.47,4.36v4.33H54.19V21.36H49.6v4.33H40.42V21.36H35.84v4.33H26.66V21.36Z"/><rect class="cls-3" x="17" y="17" width="65.2" height="65.2"/></g></g></svg>