<?xml version="1.0" encoding="utf-8"?>
<!-- Generator: Adobe Illustrator 24.2.0, SVG Export Plug-In . SVG Version: 6.00 Build 0)  -->
<svg version="1.1" id="Layer_1" xmlns="http://www.w3.org/2000/svg" xmlns:xlink="http://www.w3.org/1999/xlink" x="0px" y="0px"
	 viewBox="0 0 45.3 70.2" style="enable-background:new 0 0 45.3 70.2;" xml:space="preserve">
<style type="text/css">
	.st0{fill:#231915;}
	.st1{fill:#972037;}
</style>
<g id="Layer_2_1_">
	<g id="레이어_1">
		<rect x="13.8" y="55.8" class="st0" width="17.6" height="5.4"/>
		<path class="st0" d="M25,45.8c0,1.3-1,2.4-2.4,2.4c-1.3,0-2.4-1-2.4-2.4c0-1.3,1-2.4,2.4-2.4c0,0,0,0,0,0C24,43.5,25,44.5,25,45.8
			C25,45.8,25,45.8,25,45.8z"/>
		<path class="st0" d="M22.6,48.8c-2.1,0-4,1.2-4.8,3.2h9.7C26.7,50.1,24.8,48.8,22.6,48.8z"/>
		<rect x="13.8" y="53.1" class="st0" width="17.6" height="1.5"/>
		<path class="st1" d="M22.8,9.1h-0.2c-6.9,0.1-12.4,5.7-12.4,12.6c0,9.3,10.9,18.1,12.5,19.4c1.6-1.3,12.5-10.1,12.5-19.4
			C35.2,14.8,29.6,9.2,22.8,9.1z M22.8,27.1c-3.6,0-6.5-2.9-6.5-6.5s2.9-6.5,6.5-6.5s6.5,2.9,6.5,6.5S26.3,27.1,22.8,27.1L22.8,27.1
			z"/>
	</g>
</g>
</svg>
