<svg xmlns="http://www.w3.org/2000/svg" viewBox="0 0 99.2 99.2"><defs><style>.cls-1{fill:#6a6c6b;}.cls-2{fill:#fff;}</style></defs><g id="Layer_2" data-name="Layer 2"><g id="Layer_1-2" data-name="Layer 1"><rect class="cls-1" width="99.2" height="99.2" rx="14.06"/><path class="cls-2" d="M66.31,41.54A9.55,9.55,0,0,0,56.69,51V76.53h5.77l9.62-35Z"/><path class="cls-2" d="M78.23,22.67H60.53l1.91,5-3.06,3.09h2.69a8.08,8.08,0,1,0,16.16,0h0Z"/><path class="cls-2" d="M77.65,42.24,68.22,76.53h15.4V51A9.55,9.55,0,0,0,77.65,42.24Z"/><path class="cls-2" d="M19,38.26a3.47,3.47,0,0,0-3.43,3.49h0V63.14A3.48,3.48,0,0,0,19,66.61h3.66V38.26Z"/><path class="cls-2" d="M22.67,73.1a3.47,3.47,0,0,0,3.49,3.43H47.53A3.47,3.47,0,0,0,51,73.1V66.61H22.67Z"/></g></g></svg>