<?xml version="1.0" encoding="utf-8"?>
<!-- Generator: Adobe Illustrator 24.2.0, SVG Export Plug-In . SVG Version: 6.00 Build 0)  -->
<svg version="1.1" id="Layer_1" xmlns="http://www.w3.org/2000/svg" xmlns:xlink="http://www.w3.org/1999/xlink" x="0px" y="0px"
	 viewBox="0 0 45.3 70.2" style="enable-background:new 0 0 45.3 70.2;" xml:space="preserve">
<style type="text/css">
	.st0{fill:#972037;}
	.st1{fill:#221814;}
</style>
<g>
	<path class="st0" d="M22.8,9h-0.2c-6.9,0.1-12.4,5.7-12.4,12.6c0,9.3,10.9,18.1,12.5,19.4c1.6-1.3,12.5-10.1,12.5-19.4
		C35.2,14.7,29.6,9.1,22.8,9z M22.8,27.1c-3.6,0-6.5-2.9-6.5-6.5s2.9-6.5,6.5-6.5s6.5,2.9,6.5,6.5S26.3,27.1,22.8,27.1L22.8,27.1z"
		/>
	<g>
		<path class="st1" d="M14.7,51.2c0,1.5-1.2,2.6-2.6,2.6c-1.5,0-2.6-1.2-2.6-2.6c0-1.5,1.2-2.6,2.6-2.6
			C13.5,48.6,14.7,49.8,14.7,51.2z"/>
		<path class="st1" d="M25.1,51.2c0,1.5-1.2,2.6-2.6,2.6c-1.5,0-2.6-1.2-2.6-2.6c0-1.5,1.2-2.6,2.6-2.6
			C23.9,48.6,25.1,49.8,25.1,51.2z"/>
		<path class="st1" d="M35.4,51.2c0,1.5-1.2,2.6-2.6,2.6c-1.5,0-2.6-1.2-2.6-2.6c0-1.5,1.2-2.6,2.6-2.6
			C34.2,48.6,35.4,49.8,35.4,51.2z"/>
	</g>
</g>
</svg>
