<svg xmlns="http://www.w3.org/2000/svg" viewBox="0 0 99.2 99.2"><defs><style>.cls-1{fill:#6a6c6b;}.cls-2{fill:#fff;}</style></defs><g id="Layer_2" data-name="Layer 2"><g id="Layer_1-2" data-name="Layer 1"><rect class="cls-1" width="99.2" height="99.2" rx="14.06"/><rect class="cls-2" x="17" y="76.49" width="65.2" height="4.89"/><path class="cls-2" d="M65.9,27.6H62.64V17.82H36.56V27.6H33.3V66.71H65.9Zm-7.34,0H40.64V21.89H58.56Z"/><path class="cls-2" d="M25.15,66.71h3.26V27.6H25.15a6.52,6.52,0,0,0-6.52,6.52h0V60.19A6.51,6.51,0,0,0,25.15,66.71Z"/><path class="cls-2" d="M80.62,60.19V34.12a6.5,6.5,0,0,0-6.49-6.52H70.84V66.71H74.1a6.5,6.5,0,0,0,6.52-6.49Z"/></g></g></svg>