<?xml version="1.0" encoding="utf-8"?>
<!-- Generator: Adobe Illustrator 24.2.0, SVG Export Plug-In . SVG Version: 6.00 Build 0)  -->
<svg version="1.1" id="Layer_1" xmlns="http://www.w3.org/2000/svg" xmlns:xlink="http://www.w3.org/1999/xlink" x="0px" y="0px"
	 viewBox="0 0 45.3 70.2" style="enable-background:new 0 0 45.3 70.2;" xml:space="preserve">
<style type="text/css">
	.st0{fill:#231915;}
	.st1{fill:#972037;}
</style>
<g id="Layer_2_1_">
	<g id="레이어_1">
		<polygon class="st0" points="20.9,58.4 18.9,58.4 14.8,46.2 16.8,46.2 		"/>
		<polygon class="st0" points="26.4,58.4 24.4,58.4 21.7,46.2 23.7,46.2 		"/>
		<polygon class="st0" points="23.7,46.2 21.6,46.2 18.9,58.4 20.9,58.4 		"/>
		<polygon class="st0" points="30.5,46.2 28.5,46.2 24.4,58.4 26.4,58.4 		"/>
		<rect x="13.8" y="51.9" class="st0" width="17.6" height="1.4"/>
		<path class="st1" d="M22.7,11.8h-0.2c-6.9,0.1-12.4,5.7-12.4,12.6c0,9.3,10.9,18.1,12.5,19.4c1.6-1.3,12.5-10.1,12.5-19.4
			C35.1,17.5,29.6,11.9,22.7,11.8z M22.7,29.9c-3.6,0-6.5-2.9-6.5-6.5s2.9-6.5,6.5-6.5s6.5,2.9,6.5,6.5S26.3,29.9,22.7,29.9
			L22.7,29.9z"/>
	</g>
</g>
</svg>
