<?xml version="1.0" encoding="utf-8"?>
<!-- Generator: Adobe Illustrator 24.2.0, SVG Export Plug-In . SVG Version: 6.00 Build 0)  -->
<svg version="1.1" id="Layer_1" xmlns="http://www.w3.org/2000/svg" xmlns:xlink="http://www.w3.org/1999/xlink" x="0px" y="0px"
	 viewBox="0 0 45.3 70.2" style="enable-background:new 0 0 45.3 70.2;" xml:space="preserve">
<style type="text/css">
	.st0{fill:#231915;}
	.st1{fill:#972037;}
</style>
<g id="Layer_2_1_">
	<g id="레이어_1">
		<path class="st0" d="M29.3,45.1H16l-2.2,6.6v6.1c-0.1,0.9,0.6,1.7,1.5,1.8c0.9,0.1,1.7-0.6,1.8-1.5c0-0.1,0-0.2,0-0.3v-1.7h11v1.7
			c0,0.9,0.7,1.7,1.6,1.7c0.9,0,1.7-0.7,1.7-1.6c0,0,0,0,0,0v-6.1L29.3,45.1z M17.1,55.1c-0.6,0-1.1-0.5-1.1-1.1s0.5-1.1,1.1-1.1
			s1.1,0.5,1.1,1.1S17.8,55.1,17.1,55.1z M28.2,55.1c-0.6,0-1.1-0.5-1.1-1.1s0.5-1.1,1.1-1.1c0.6,0,1.1,0.5,1.1,1.1
			S28.8,55.1,28.2,55.1z M15.7,50.4l1.3-4h11.3l1.3,4H15.7z"/>
		<path class="st1" d="M22.7,10.7h-0.2c-6.9,0.1-12.4,5.7-12.4,12.6c0,9.3,10.9,18.1,12.5,19.4c1.6-1.3,12.5-10.1,12.5-19.4
			C35.1,16.4,29.6,10.8,22.7,10.7z M22.7,28.8c-3.6,0-6.5-2.9-6.5-6.5s2.9-6.5,6.5-6.5s6.5,2.9,6.5,6.5S26.3,28.8,22.7,28.8
			L22.7,28.8z"/>
	</g>
</g>
</svg>
