<svg id="Layer_13" data-name="Layer 13" xmlns="http://www.w3.org/2000/svg" viewBox="0 0 48 48"><defs><style>.cls-1{fill:#92b525;}.cls-1,.cls-3{fill-rule:evenodd;}.cls-2,.cls-3{fill:#fff;}</style></defs><path class="cls-1" d="M41.28,0H6.72A6.72,6.72,0,0,0,0,6.72V41.28A6.72,6.72,0,0,0,6.72,48H41.28A6.72,6.72,0,0,0,48,41.28V6.72A6.72,6.72,0,0,0,41.28,0Z"/><ellipse class="cls-2" cx="23.79" cy="10.68" rx="4.32" ry="4.31" transform="translate(13.07 34.46) rotate(-89.91)"/><path class="cls-3" d="M31.1,37.28H28.28V17.49H17.35a1.45,1.45,0,0,0-1.45,1.45v1.31a1.45,1.45,0,0,0,1.45,1.45H19.8V37.28H16.9a1.45,1.45,0,0,0-1.46,1.45v1.45a1.46,1.46,0,0,0,1.46,1.46H31.1a1.46,1.46,0,0,0,1.46-1.46V38.73A1.45,1.45,0,0,0,31.1,37.28Z"/></svg>