<svg xmlns="http://www.w3.org/2000/svg" viewBox="0 0 99.21 99.12"><defs><style>.cls-1{fill:#6a6b6b;}.cls-1,.cls-2,.cls-3{fill-rule:evenodd;}.cls-2,.cls-3{fill:#fff;}.cls-3{opacity:0.21;}</style></defs><g id="Layer_2" data-name="Layer 2"><g id="Layer_1-2" data-name="Layer 1"><path class="cls-1" d="M85.32,0H13.89A13.88,13.88,0,0,0,0,13.88V85.24A13.88,13.88,0,0,0,13.89,99.12H85.32A13.88,13.88,0,0,0,99.21,85.24V13.88A13.88,13.88,0,0,0,85.32,0Z"/><path class="cls-2" d="M58.94,51.33h0Z"/><path class="cls-2" d="M68.88,57.4v.05a.07.07,0,0,1,0-.05Z"/><path class="cls-2" d="M68.84,57.61v0l0-.18A.94.94,0,0,0,68.84,57.61Z"/><polygon class="cls-3" points="30.17 76.66 29.93 76.43 29.93 76.66 30.17 76.66"/><polygon class="cls-3" points="68.72 37.47 68.91 37.65 68.91 37.47 68.72 37.47"/><path class="cls-2" d="M46.75,30.66a4.31,4.31,0,1,1-4.31-4.31A4.31,4.31,0,0,1,46.75,30.66Z"/><path class="cls-2" d="M59.74,22.77a4.31,4.31,0,1,1-4.31-4.31A4.31,4.31,0,0,1,59.74,22.77Z"/><path class="cls-2" d="M78.53,33.82H67l-6.74,4L34.9,52.64l-6.73,4L26,57.89H20.68a11.38,11.38,0,0,0,0,22.76H32.54l6.76-4L64.72,61.84l6.75-4,2.23-1.3h4.83a11.39,11.39,0,0,0,0-22.77Zm-.18,18.82H71.27l-6.75,4-2.23,1.3-6.75,4L30.12,76.7H20.86a7.43,7.43,0,1,1,0-14.86h7.52l6.73-4,2.22-1.3,6.73-4L69.4,37.78h8.95a7.43,7.43,0,1,1,0,14.86Z"/><path class="cls-2" d="M46.58,39.92a4,4,0,0,0-8,0V47l8-4.7Z"/><path class="cls-2" d="M59.72,32a4,4,0,0,0-8,0v7.23l8-4.69Z"/></g></g></svg>