<svg xmlns="http://www.w3.org/2000/svg" viewBox="0 0 99.21 99.12"><defs><style>.cls-1{fill:#6a6b6b;}.cls-1,.cls-2,.cls-3{fill-rule:evenodd;}.cls-2,.cls-3,.cls-4{fill:#fff;}.cls-3{opacity:0.21;}</style></defs><g id="Layer_2" data-name="Layer 2"><g id="Layer_1-2" data-name="Layer 1"><path class="cls-1" d="M85.32,0H13.89A13.88,13.88,0,0,0,0,13.88V85.24A13.88,13.88,0,0,0,13.89,99.12H85.32A13.88,13.88,0,0,0,99.21,85.24V13.88A13.88,13.88,0,0,0,85.32,0Z"/><path class="cls-2" d="M59.29,49.07h0Z"/><path class="cls-2" d="M68.71,54.82v0a.09.09,0,0,1,0,0Z"/><path class="cls-2" d="M68.68,55v0l0-.18A.8.8,0,0,0,68.68,55Z"/><polygon class="cls-3" points="32.04 73.07 31.81 72.85 31.81 73.07 32.04 73.07"/><polygon class="cls-3" points="68.56 35.94 68.74 36.11 68.74 35.94 68.56 35.94"/><polygon class="cls-2" points="49.75 8.57 45.66 13.06 45.65 17.43 48.11 14.74 48.13 21.7 51.3 21.68 51.3 14.73 53.84 17.56 53.84 13.1 49.75 8.57"/><polygon class="cls-2" points="49.73 90.55 53.82 86.06 53.84 81.69 51.37 84.37 51.35 77.42 48.18 77.44 48.18 84.39 45.65 81.56 45.65 86.01 49.73 90.55"/><rect class="cls-4" x="17.04" y="14.34" width="5.17" height="65.36"/><rect class="cls-4" x="77" y="14.34" width="5.17" height="65.36"/><rect class="cls-4" x="27.27" y="24.35" width="44.89" height="2.59"/><rect class="cls-4" x="27.27" y="71.94" width="44.89" height="2.59"/><path class="cls-2" d="M39.62,33.77a2.87,2.87,0,1,1-2.87-2.87A2.88,2.88,0,0,1,39.62,33.77Z"/><path class="cls-2" d="M57.4,39.23a2.7,2.7,0,1,1-2.7-2.7A2.7,2.7,0,0,1,57.4,39.23Z"/><path class="cls-2" d="M69.4,62l-3.14-7.18a10.82,10.82,0,0,1-.49-1c-.42-.95-.88-1.33-1.77-1.33H58l-.27-2.11h5a1.13,1.13,0,0,0,0-2.25H57.44L57,44.52a2.15,2.15,0,0,0-4.27.55l1.13,8.76A2.15,2.15,0,0,0,56,55.7l.21,0h7c0,.12,3.25,7.55,3.25,7.55a1.64,1.64,0,0,0,3-1.32Z"/><path class="cls-2" d="M57.88,64.57a7.57,7.57,0,0,1-5.27-13L52.2,49A9.79,9.79,0,1,0,65.39,63.27l-.94-2.52A7.56,7.56,0,0,1,57.88,64.57Z"/><path class="cls-2" d="M44.93,49.52l-3.12-9.67c-.14-.45-.21-.61-.34-1-.36-1.17-1-1.84-2-1.84h-5a2,2,0,0,0-1.94,1.49l-.19.55-3.3,10.46a1,1,0,1,0,1.93.59l2.83-9.18h0v6.88c0,.34-.21,1.06-.24,1.27l-2.4,16.19a1.62,1.62,0,0,0,3.2.46l2-13.43h0s0-.05,0-.08v0h0a.61.61,0,0,1,.59-.52.62.62,0,0,1,.62.62s1.88,13.45,1.88,13.45a1.61,1.61,0,1,0,3.19-.47L40.18,48.4V41.18l2.83,9a1,1,0,0,0,1.93-.62Z"/><path class="cls-2" d="M69.72,38.13a1,1,0,1,1-1-1A1,1,0,0,1,69.72,38.13Z"/><path class="cls-2" d="M69.72,42.19a1,1,0,1,1-1-1A1,1,0,0,1,69.72,42.19Z"/><path class="cls-2" d="M69.72,46.24a1,1,0,1,1-1-1A1,1,0,0,1,69.72,46.24Z"/></g></g></svg>