<?xml version="1.0" encoding="utf-8"?>
<!-- Generator: Adobe Illustrator 24.2.0, SVG Export Plug-In . SVG Version: 6.00 Build 0)  -->
<svg version="1.1" id="Layer_1" xmlns="http://www.w3.org/2000/svg" xmlns:xlink="http://www.w3.org/1999/xlink" x="0px" y="0px"
	 viewBox="0 0 45.3 70.2" style="enable-background:new 0 0 45.3 70.2;" xml:space="preserve">
<style type="text/css">
	.st0{fill:#231915;}
	.st1{fill:#972037;}
</style>
<g id="Layer_2_1_">
	<g id="레이어_1">
		<path class="st0" d="M27.4,53h-4.2V56c1.2,0.1,2.4,0.4,3.5,1C27.1,55.7,27.4,54.3,27.4,53z"/>
		<path class="st0" d="M18.1,46.4c0.3-0.8,0.8-1.5,1.4-2.1c-0.8,0.3-1.6,0.8-2.3,1.3C17.4,45.9,17.7,46.1,18.1,46.4z"/>
		<path class="st0" d="M22.1,47.9v-4.2c-1.3,0.2-2.4,1.5-3.2,3.3C19.9,47.5,21,47.8,22.1,47.9z"/>
		<path class="st0" d="M26.4,46.9c-0.8-1.8-1.9-3-3.2-3.3v4.2C24.3,47.8,25.4,47.5,26.4,46.9z"/>
		<path class="st0" d="M22.1,53h-4.2c0,1.4,0.3,2.7,0.7,4c1.1-0.6,2.3-0.9,3.5-1V53z"/>
		<path class="st0" d="M22.1,48.9c-1.2-0.1-2.4-0.4-3.5-1c-0.4,1.3-0.6,2.7-0.7,4h4.2V48.9z"/>
		<path class="st0" d="M22.1,61.2v-4.2C21,57.1,19.9,57.4,19,58C19.4,59.5,20.6,60.7,22.1,61.2z"/>
		<path class="st0" d="M23.2,57.1v4.2c1.5-0.5,2.7-1.7,3.2-3.2C25.4,57.4,24.3,57.1,23.2,57.1z"/>
		<path class="st0" d="M16.9,51.9c0-1.5,0.3-3.1,0.8-4.5c-0.5-0.3-0.9-0.7-1.3-1.1c-1.5,1.5-2.4,3.5-2.5,5.7H16.9z"/>
		<path class="st0" d="M16.4,58.7c0.4-0.4,0.8-0.8,1.3-1.1c-0.5-1.5-0.8-3-0.8-4.5h-3C14,55.2,14.9,57.2,16.4,58.7z"/>
		<path class="st0" d="M28.4,53c0,1.5-0.3,3.1-0.8,4.5c0.5,0.3,0.9,0.7,1.3,1.1c1.5-1.5,2.4-3.5,2.5-5.7H28.4z"/>
		<path class="st0" d="M28.9,46.3c-0.4,0.4-0.8,0.8-1.3,1.1c0.5,1.5,0.8,3,0.8,4.6h3C31.3,49.8,30.4,47.8,28.9,46.3z"/>
		<path class="st0" d="M28.2,45.6c-0.7-0.5-1.4-1-2.3-1.3c0.5,0.6,1,1.4,1.3,2.1C27.6,46.1,27.9,45.9,28.2,45.6z"/>
		<path class="st0" d="M27.2,58.5c-0.3,0.8-0.8,1.5-1.4,2.1c0.8-0.3,1.6-0.8,2.3-1.3C27.8,59,27.5,58.8,27.2,58.5z"/>
		<path class="st0" d="M23.2,48.9v3.1h4.2c0-1.4-0.3-2.7-0.7-4C25.6,48.5,24.4,48.8,23.2,48.9z"/>
		<path class="st0" d="M17.1,59.3c0.7,0.6,1.5,1,2.3,1.3c-0.6-0.6-1-1.4-1.4-2.2C17.7,58.8,17.4,59,17.1,59.3z"/>
		<path class="st1" d="M22.8,9h-0.2c-6.9,0.1-12.4,5.7-12.4,12.6c0,9.3,10.9,18.1,12.5,19.4c1.6-1.3,12.5-10.1,12.5-19.4
			C35.2,14.7,29.6,9.1,22.8,9z M22.8,27.1c-3.6,0-6.5-2.9-6.5-6.5s2.9-6.5,6.5-6.5s6.5,2.9,6.5,6.5S26.3,27.1,22.8,27.1L22.8,27.1z"
			/>
	</g>
</g>
</svg>
