<svg xmlns="http://www.w3.org/2000/svg" viewBox="0 0 99.21 99.21"><defs><style>.cls-1{fill:#6a6b6b;}.cls-1,.cls-2{fill-rule:evenodd;}.cls-2{fill:#fff;}</style></defs><g id="Layer_2" data-name="Layer 2"><g id="Layer_1-2" data-name="Layer 1"><path class="cls-1" d="M13.89,0H85.32A13.89,13.89,0,0,1,99.21,13.89V85.32A13.89,13.89,0,0,1,85.32,99.21H13.89A13.89,13.89,0,0,1,0,85.32V13.89A13.89,13.89,0,0,1,13.89,0Z"/><path class="cls-2" d="M37.79,38.26a6.5,6.5,0,1,0,6.5-6.5,6.5,6.5,0,0,0-6.5,6.5Z"/><path class="cls-2" d="M56.22,54.76l4.53-2.6a3.56,3.56,0,0,1,3.61.1l12.55,8.79.07,0s0,0,.07,0l.13.09v0a3.37,3.37,0,0,1-3.92,5.46l0,0Z"/><path class="cls-2" d="M22.23,78.7a3.21,3.21,0,1,0,3.21-3.21,3.21,3.21,0,0,0-3.21,3.21Zm40.46-3.21A3.21,3.21,0,1,0,65.9,78.7a3.21,3.21,0,0,0-3.21-3.21Zm-45.46-43a6.72,6.72,0,0,1,4.89,1h0L68.48,65.63v8.88a7.08,7.08,0,0,1,1.37,4.19,7.17,7.17,0,1,1-4.23-6.53V66.79L58,61.46l-12.4,5.43a6.41,6.41,0,0,1-8.33-4.13L37,62.18,30.42,73.57A7.25,7.25,0,1,1,28,72l7.85-13.54-5.1-16.05-10-7a4.39,4.39,0,0,0-3.09-.6A4.43,4.43,0,0,0,14.05,40a3.76,3.76,0,0,0,1.81,2.84s.83.75.33,1.53a1.24,1.24,0,0,1-1.53.55,5.44,5.44,0,0,1-3-4.51A6.84,6.84,0,0,1,17.23,32.48Z"/><path class="cls-2" d="M88.48,39.91H79.61l-3.84-10H73.3v10h-8V13.83H78.91c3,0,5.34.7,7,2.11a6.94,6.94,0,0,1,2.49,5.57,8.39,8.39,0,0,1-.92,4,7.73,7.73,0,0,1-3.72,3.05l4.72,11.36ZM73.3,24.39h3.42a4.14,4.14,0,0,0,2.43-.64,2.12,2.12,0,0,0,.92-1.86c0-1.68-1-2.51-3.08-2.51H73.3Z"/></g></g></svg>