<svg id="Layer_10" data-name="Layer 10" xmlns="http://www.w3.org/2000/svg" viewBox="0 0 48 48"><defs><style>.cls-1,.cls-5{fill:#2262a3;}.cls-1,.cls-2,.cls-3{fill-rule:evenodd;}.cls-2,.cls-3,.cls-4{fill:#fff;}.cls-2{opacity:0.21;}</style></defs><path class="cls-1" d="M41.28,0H6.72A6.72,6.72,0,0,0,0,6.72V41.28A6.72,6.72,0,0,0,6.72,48H41.28A6.72,6.72,0,0,0,48,41.28V6.72A6.72,6.72,0,0,0,41.28,0Z"/><polygon class="cls-2" points="13.35 36.6 13.24 36.49 13.24 36.6 13.35 36.6"/><path class="cls-3" d="M27,13.64a5.16,5.16,0,1,1-5.15-5.16A5.16,5.16,0,0,1,27,13.64Z"/><path class="cls-3" d="M32.73,19.75H11.18a2.15,2.15,0,0,0,0,4.29h5.28v5.09h11V24h5.24a2.15,2.15,0,1,0,0-4.29Z"/><path class="cls-3" d="M30.73,33.46,27.44,30l-3.86,4.14,1.68,1.65-1.87,2a2.28,2.28,0,0,0,3.29,3.13l4.2-4.43A2.18,2.18,0,0,0,30.73,33.46Z"/><path class="cls-3" d="M20.41,37.75,18.47,35.9l1.74-1.82L16.55,30l-3.42,3.32-.3.36a2.32,2.32,0,0,0,0,3.2l4.42,4.2a2.28,2.28,0,0,0,3.13-3.3Z"/><path class="cls-3" d="M40.13,6.21l1.12,1.17.58.56.61.58a.67.67,0,0,1,0,1L34.6,17.35a.7.7,0,0,1-1,0L31.33,15a.71.71,0,0,1,0-1l7.85-7.84A.67.67,0,0,1,40.13,6.21Z"/><path class="cls-1" d="M40,6.74l1.89,1.89a.6.6,0,0,1,0,.86l-1.15,1.15H35.2l4-3.86A.61.61,0,0,1,40,6.74Z"/><polygon class="cls-3" points="38.55 7.25 40.15 8.83 39.87 9.11 38.29 7.53 38.55 7.25"/><rect class="cls-4" x="37.9" y="8.18" width="0.4" height="2.24" transform="translate(4.58 29.66) rotate(-44.99)"/><rect class="cls-5" x="36.78" y="9.43" width="0.4" height="2.17" transform="translate(3.39 29.21) rotate(-44.98)"/><polygon class="cls-1" points="35.23 10.72 36.76 12.26 36.48 12.52 34.95 10.99 35.23 10.72"/><polygon class="cls-1" points="34.11 11.85 35.64 13.38 35.36 13.64 33.84 12.11 34.11 11.85"/><polygon class="cls-1" points="32.99 12.97 34.52 14.48 34.26 14.76 32.73 13.23 32.99 12.97"/><path class="cls-3" d="M42.83,7.45a.89.89,0,0,1,0,1C42.69,8.72,42,8,41.3,7.33S40,6,40.15,5.78a1,1,0,0,1,1,0,.09.09,0,0,1,0-.07c.13-.13.53,0,.94.4a1,1,0,0,1,.29-1A.9.9,0,0,1,43.67,5a.9.9,0,0,1-.16,1.22,1,1,0,0,1-1,.29c.35.42.53.81.4.94S42.87,7.45,42.83,7.45Z"/><polygon class="cls-3" points="36.3 9.56 37.37 10.64 36.83 10.64 36.02 9.84 36.3 9.56"/></svg>