<svg xmlns="http://www.w3.org/2000/svg" viewBox="0 0 99.2 99.2"><defs><style>.cls-1{fill:#6a6c6b;}.cls-2{fill:#fff;}</style></defs><g id="Layer_2" data-name="Layer 2"><g id="Layer_1-2" data-name="Layer 1"><rect class="cls-1" width="99.2" height="99.2" rx="14.06"/><polygon class="cls-2" points="68.08 41.51 61.74 78.45 37.46 78.45 31.11 41.51 26.92 41.51 33.97 82.58 65.23 82.58 72.28 41.51 68.08 41.51"/><path class="cls-2" d="M49.6,41.35a8.88,8.88,0,0,0,8.93-8.85h0c0-4.89-8.93-15.88-8.93-15.88s-8.93,11-8.93,15.88a8.88,8.88,0,0,0,8.93,8.85Z"/><path class="cls-2" d="M62.66,49.85a6.4,6.4,0,0,1-3.89,1.22,6,6,0,0,1-4.59-1.88,6.52,6.52,0,0,1-9.16,0,6,6,0,0,1-4.59,1.88,6.37,6.37,0,0,1-3.75-1.13L40.8,74.32H58.45Z"/></g></g></svg>