<svg xmlns="http://www.w3.org/2000/svg" viewBox="0 0 99.21 99.12"><defs><style>.cls-1{fill:#6a6b6b;}.cls-1,.cls-2{fill-rule:evenodd;}.cls-2{fill:#fff;}</style></defs><g id="Layer_2" data-name="Layer 2"><g id="Layer_1-2" data-name="Layer 1"><path class="cls-1" d="M85.32,0H13.89A13.88,13.88,0,0,0,0,13.88V85.24A13.88,13.88,0,0,0,13.89,99.12H85.32A13.88,13.88,0,0,0,99.21,85.24V13.88A13.88,13.88,0,0,0,85.32,0Z"/><polygon class="cls-2" points="80.21 25.06 86.4 25.06 86.4 35.01 80.21 35.01 73.58 40.75 73.58 19.31 80.21 25.06"/><path class="cls-2" d="M61.31,43.81a19.54,19.54,0,0,1,.23-27.64L63.34,18a17,17,0,0,0-.2,24l-1.83,1.81ZM64.43,19.1a15.44,15.44,0,0,0-.19,21.82l1.84-1.81a12.84,12.84,0,0,1,.15-18.17l-1.8-1.84Zm3.08,3.14,1.81,1.83a8.45,8.45,0,0,0-.1,12l-1.84,1.8a11,11,0,0,1,.13-15.59Z"/><path class="cls-2" d="M40.14,20a5.78,5.78,0,1,1-5.78-5.78A5.77,5.77,0,0,1,40.14,20Z"/><path class="cls-2" d="M77.84,90.15,56.12,56.47a2.94,2.94,0,0,0-.06-3.33L41.69,33c-2.41-3.28-4.19-5.58-8-5.59a7.59,7.59,0,0,0-5.47,2.29c-.53.25-8.46,7.82-8.46,7.82a6.41,6.41,0,0,0-.9,1.15.94.94,0,0,0-.44.52L12.87,52.85A2.69,2.69,0,0,0,17.81,55l5-11.62c.07-.15,2.41-2.47,3.56-3.62a6.22,6.22,0,0,0-.08,1.56V52.06c0,.15,0,.29,0,.44l0,.14L24.27,68l-7.33,16a3.4,3.4,0,0,0,6,3.2S32.43,69.69,32.56,69l1.79-8.32,4.25,8.8,2.57,17.76a3.4,3.4,0,0,0,6.74-1l-1.23-18a3.58,3.58,0,0,0-.09-.45,3.86,3.86,0,0,0-.3-1.58l-5.36-14.4V43L51.19,55.72c.79,1.09,2.28,2.05,3.51,1.8l22.44,33.1a.42.42,0,0,0,.58.11A.43.43,0,0,0,77.84,90.15Z"/></g></g></svg>