<svg id="레이어_4" data-name="레이어 4" xmlns="http://www.w3.org/2000/svg" viewBox="0 0 50 44.54"><defs><style>.cls-1{fill:#e11a5c;}</style></defs><title>한국공항공사_icon</title><path class="cls-1" d="M36.58,1.1a11.33,11.33,0,0,0-7.1,2.45,16.16,16.16,0,0,0-4.15,5,16.35,16.35,0,0,0-4.16-5A11.33,11.33,0,0,0,14.08,1.1C6.81,1.1,1.32,7,1.32,14.93c0,8.51,6.84,14.34,17.19,23.16,1.76,1.5,3.76,3.2,5.83,5a1.5,1.5,0,0,0,2,0c2.07-1.81,4.06-3.51,5.83-5,10.35-8.82,17.19-14.65,17.19-23.16C49.33,7,43.84,1.1,36.58,1.1ZM19.32,34.7l4.23-9.41-7.33-3.1L31.48,9.87,27,19.18l7.43,3.14C34.46,22.53,19.32,34.7,19.32,34.7Z"/></svg>