<?xml version="1.0" encoding="utf-8"?>
<!-- Generator: Adobe Illustrator 24.2.0, SVG Export Plug-In . SVG Version: 6.00 Build 0)  -->
<svg version="1.1" id="Layer_1" xmlns="http://www.w3.org/2000/svg" xmlns:xlink="http://www.w3.org/1999/xlink" x="0px" y="0px"
	 viewBox="0 0 45.3 70.2" style="enable-background:new 0 0 45.3 70.2;" xml:space="preserve">
<style type="text/css">
	.st0{fill:#972037;}
	.st1{fill:#231915;}
</style>
<g id="Layer_2_1_">
	<g id="레이어_1">
		<path class="st0" d="M22.7,8.8h-0.2c-6.9,0.1-12.4,5.7-12.4,12.6c0,9.3,10.9,18.1,12.5,19.4c1.6-1.3,12.5-10.1,12.5-19.4
			C35.1,14.5,29.6,8.9,22.7,8.8z M22.7,26.9c-3.6,0-6.5-2.9-6.5-6.5s2.9-6.5,6.5-6.5s6.5,2.9,6.5,6.5S26.3,26.9,22.7,26.9L22.7,26.9
			z"/>
		<path class="st1" d="M28.4,43.8v3.8h-1.3v-3.8H26v3.8h-1.3v-3.8h-1.2v4.5c-0.1,1.7,1.2,3.2,2.9,3.3c1.7,0.1,3.2-1.2,3.3-2.9
			c0-0.1,0-0.2,0-0.4v-4.5H28.4z"/>
		<path class="st1" d="M21.8,47.6c0,2.1-1.4,3.8-3.1,3.8c-1.7,0-3.1-1.7-3.1-3.8c0-2.1,1.4-3.7,3.1-3.7
			C20.5,43.8,21.8,45.5,21.8,47.6z"/>
		<polygon class="st1" points="20,61.4 17.6,61.4 18.1,51 19.5,51 		"/>
		<polygon class="st1" points="27.7,61.4 25.3,61.4 25.8,51 27.2,51 		"/>
		<rect x="28.4" y="43.8" class="st1" width="1.2" height="3.8"/>
	</g>
</g>
</svg>
