<svg xmlns="http://www.w3.org/2000/svg" viewBox="0 0 99.21 99.12"><defs><style>.cls-1{fill:#6a6b6b;}.cls-1,.cls-2{fill-rule:evenodd;}.cls-2{fill:#fff;}</style></defs><g id="Layer_2" data-name="Layer 2"><g id="Layer_1-2" data-name="Layer 1"><path class="cls-1" d="M85.32,0H13.89A13.88,13.88,0,0,0,0,13.88V85.24A13.88,13.88,0,0,0,13.89,99.12H85.32A13.88,13.88,0,0,0,99.21,85.24V13.88A13.88,13.88,0,0,0,85.32,0Z"/><path class="cls-2" d="M26.45,12.61A2.66,2.66,0,1,1,23.79,10a2.66,2.66,0,0,1,2.66,2.65Z"/><path class="cls-2" d="M26.45,32.18a2.66,2.66,0,1,1-2.66-2.66,2.66,2.66,0,0,1,2.66,2.66Z"/><path class="cls-2" d="M35.09,22.39a2.66,2.66,0,1,1-2.66-2.65,2.66,2.66,0,0,1,2.66,2.65Z"/><path class="cls-2" d="M35.09,32.18a2.66,2.66,0,1,1-2.66-2.66,2.66,2.66,0,0,1,2.66,2.66Z"/><path class="cls-2" d="M52.37,12.61A2.66,2.66,0,1,1,49.71,10a2.66,2.66,0,0,1,2.66,2.65Z"/><path class="cls-2" d="M52.37,22.39a2.66,2.66,0,1,1-2.66-2.65,2.66,2.66,0,0,1,2.66,2.65Z"/><path class="cls-2" d="M69.65,12.61A2.66,2.66,0,1,1,67,10a2.66,2.66,0,0,1,2.66,2.65Z"/><path class="cls-2" d="M78.29,12.61A2.66,2.66,0,1,1,75.63,10a2.66,2.66,0,0,1,2.66,2.65Z"/><path class="cls-2" d="M78.29,22.39a2.66,2.66,0,1,1-2.66-2.65,2.66,2.66,0,0,1,2.66,2.65Z"/><path class="cls-2" d="M74.86,38.22a3.07,3.07,0,0,0-3.08,3.07V56.66a1.14,1.14,0,1,1-2.27,0V35.74a3.08,3.08,0,1,0-6.15,0V48.85h0v7.78a1.14,1.14,0,1,1-2.27,0v-25a3.08,3.08,0,1,0-6.15,0V56.38h0v.26a1.12,1.12,0,1,1-2.24,0v-.15h0V36.35a3.08,3.08,0,0,0-6.15,0V67.89a.8.8,0,0,1-1.37.36l-4.49-7.77A6.41,6.41,0,0,0,32,58.25l-.19.1a1.07,1.07,0,0,0-.42,1.29c0,.08,14.08,24.43,14.91,25.79,1.66,2.7,3.15,3.42,5.94,3.42H70.5a7.42,7.42,0,0,0,7.43-7.42V41.29a3.06,3.06,0,0,0-3.07-3.07Z"/></g></g></svg>