<svg xmlns="http://www.w3.org/2000/svg" viewBox="0 0 99.2 99.2"><defs><style>.cls-1{fill:#6a6c6b;}.cls-2{fill:#fff;}</style></defs><g id="Layer_2" data-name="Layer 2"><g id="Layer_1-2" data-name="Layer 1"><rect class="cls-1" width="99.2" height="99.2" rx="14.06"/><path class="cls-2" d="M72.41,27.79H54.26l2,5.13L53.1,36.06h2.76a8.28,8.28,0,1,0,16.55.7c0-.23,0-.47,0-.7h0Z"/><path class="cls-2" d="M60.19,47.12a9.81,9.81,0,0,0-9.86,9.74h0V83h5.92L66.1,47.14Z"/><path class="cls-2" d="M71.81,47.85,62.16,83H78V56.86A9.76,9.76,0,0,0,71.81,47.85Z"/><polygon class="cls-2" points="35.25 16.17 21.25 22.05 35.25 26.09 35.25 16.17"/><polygon class="cls-2" points="21.25 24.46 21.25 50.96 41.61 56.86 41.61 30.35 21.25 24.46"/></g></g></svg>