<svg id="Layer_3" data-name="Layer 3" xmlns="http://www.w3.org/2000/svg" viewBox="0 0 48 48"><defs><style>.cls-1{fill:#5e93ce;}.cls-1,.cls-2{fill-rule:evenodd;}.cls-2{fill:#fff;}</style></defs><path class="cls-1" d="M41.28,0H6.72A6.72,6.72,0,0,0,0,6.72V41.28A6.72,6.72,0,0,0,6.72,48H41.28A6.72,6.72,0,0,0,48,41.28V6.72A6.72,6.72,0,0,0,41.28,0Z"/><path class="cls-2" d="M14.29,12.43a2.38,2.38,0,1,1-2.38-2.38A2.38,2.38,0,0,1,14.29,12.43Z"/><path class="cls-2" d="M29.68,12.43a2.38,2.38,0,1,1-2.37-2.38A2.37,2.37,0,0,1,29.68,12.43Z"/><path class="cls-2" d="M34.06,25.82l-2.65-8.21c-.12-.39-.18-.52-.28-.84-.31-1-.82-1.56-1.72-1.56H25.2a1.72,1.72,0,0,0-1.65,1.26c-.08.24-.14.4-.16.48l-2.8,8.87a.86.86,0,1,0,1.64.51l2.39-7.79h0v5.84c0,.29-.18.9-.21,1.08l-2,13.75a1.37,1.37,0,1,0,2.71.39l1.66-11.4h0s0-.05,0-.07v0h0a.51.51,0,0,1,.5-.44.53.53,0,0,1,.53.53S29.41,39.6,29.41,39.6a1.37,1.37,0,1,0,2.71-.4L30,24.87V18.74l2.39,7.61a.86.86,0,0,0,1.08.55A.87.87,0,0,0,34.06,25.82Z"/><path class="cls-2" d="M18.56,25.82l-2.64-8.21c-.12-.39-.17-.54-.28-.83-.37-1-.82-1.57-1.72-1.57H9.7a1.66,1.66,0,0,0-1.62,1.24,2.72,2.72,0,0,0-.17.43L5.09,25.82a.86.86,0,1,0,1.64.51l2.4-7.79h0l.5,4.27h0l-2.94,9.6a.63.63,0,0,0-.09.33.67.67,0,0,0,.61.67H9.62l.86,6v0a1.37,1.37,0,1,0,2.74,0v0l.78-6h2.53a.68.68,0,0,0,.55-.66.61.61,0,0,0-.08-.3l-3-9.63.53-4.07,2.4,7.61a.86.86,0,0,0,1.63-.53Z"/><path class="cls-2" d="M41.36,35.52v0Z"/><path class="cls-2" d="M41.35,35.58h0v-.05S41.35,35.57,41.35,35.58Z"/><path class="cls-2" d="M39.09,26.39A1.37,1.37,0,1,1,37.72,25,1.37,1.37,0,0,1,39.09,26.39Z"/><path class="cls-2" d="M45.17,37.92l-1.59-3.64c-.07-.16-.16-.28-.25-.52-.21-.48-.44-.67-.9-.67h-3L39.26,32H41.8a.58.58,0,0,0,.57-.57.57.57,0,0,0-.57-.57H39.11l-.23-1.81a1.09,1.09,0,0,0-2.17.28l.58,4.45a1.09,1.09,0,0,0,1.07,1H42c0,.06,1.65,3.82,1.65,3.82a.81.81,0,0,0,1.09.43A.83.83,0,0,0,45.17,37.92Z"/><path class="cls-2" d="M39.33,39.25a3.85,3.85,0,0,1-2.67-6.61l-.2-1.28a5,5,0,1,0,6.68,7.23l-.48-1.28A3.82,3.82,0,0,1,39.33,39.25Z"/></svg>