<svg xmlns="http://www.w3.org/2000/svg" viewBox="0 0 99.2 99.2"><defs><style>.cls-1{fill:#6a6c6b;}.cls-2{fill:#fff;}</style></defs><g id="Layer_2" data-name="Layer 2"><g id="Layer_1-2" data-name="Layer 1"><rect class="cls-1" width="99.2" height="99.2" rx="14.06"/><path class="cls-2" d="M46.45,34.66l-1.77,2.15a7.3,7.3,0,0,0,4.23,1.8v1.48h1.36V38.63a4.23,4.23,0,0,0,4.25-4,3.6,3.6,0,0,0-2.58-3.57l-1.62-.64V27.87a4.33,4.33,0,0,1,2.25,1l1.55-2a6,6,0,0,0-3.8-1.67v-1.4H49v1.48a4.08,4.08,0,0,0-3.73,3.86,3.79,3.79,0,0,0,2.71,3.56l1.09.46v2.72A5.75,5.75,0,0,1,46.45,34.66Zm3.87-.91c.61.28,1,.56,1,1.1s-.32.91-1,1.06Zm-2-4.8a.91.91,0,0,1,.57-.86v1.69A1,1,0,0,1,48.34,29Z"/><path class="cls-2" d="M82.2,17H17V46.88H51.58a13.59,13.59,0,1,0,25.92,0h4.7ZM70.48,52.32H66.16V54h4.32v1.7H66.16v2.72H62.91V55.71H58.59V54h4.32V52.32H58.59V50.65h3.56l-3.33-7.16h3.47l1.12,3,1.1,3h0c.39-1.06.75-2,1.14-3l1.13-3h3.41l-3.34,7.16h3.56Zm7.64-9.51H75.41a13.59,13.59,0,0,0-19-2.72,13.74,13.74,0,0,0-2.72,2.72H21.08V21.08h57Z"/><path class="cls-2" d="M34.66,55A13.59,13.59,0,1,0,48.24,68.62,13.58,13.58,0,0,0,34.66,55Zm7.47,12.76H32.5a5.21,5.21,0,0,0,0,.79,6.17,6.17,0,0,0,0,.86h9.63V71.1H32.89a3.09,3.09,0,0,0,3,2.07,3.83,3.83,0,0,0,2.79-1.36l1.84,2.24a6.07,6.07,0,0,1-4.77,2.16,6.47,6.47,0,0,1-6.47-5.11h-2V69.44h1.72c0-.24,0-.49,0-.74a3,3,0,0,1,.09-.91H27.19V66.12h2A6.78,6.78,0,0,1,35.81,61,6.24,6.24,0,0,1,40.26,63l-1.85,2.23A3.63,3.63,0,0,0,35.88,64a3.25,3.25,0,0,0-3,2.08h9.2Z"/></g></g></svg>