<svg xmlns="http://www.w3.org/2000/svg" viewBox="0 0 99.21 99.12"><defs><style>.cls-1{fill:#6a6b6b;}.cls-1,.cls-2{fill-rule:evenodd;}.cls-2{fill:#fff;}</style></defs><g id="Layer_2" data-name="Layer 2"><g id="Layer_1-2" data-name="Layer 1"><path class="cls-1" d="M85.32,0H13.89A13.88,13.88,0,0,0,0,13.88V85.24A13.88,13.88,0,0,0,13.89,99.12H85.32A13.88,13.88,0,0,0,99.21,85.24V13.88A13.88,13.88,0,0,0,85.32,0Z"/><path class="cls-2" d="M34.34,56.06h0Z"/><path class="cls-2" d="M47.57,64.13v.07s0,0,0-.07Z"/><path class="cls-2" d="M47.51,64.41s0,0,0,0l0-.24A1.6,1.6,0,0,0,47.51,64.41Z"/><path class="cls-2" d="M36.85,21.16a6.44,6.44,0,1,1-6.44-6.45A6.44,6.44,0,0,1,36.85,21.16Z"/><path class="cls-2" d="M65.49,75.38,58,58.25c-.33-.74-.75-1.32-1.17-2.41-1-2.28-2.1-3.16-4.24-3.16H38.29l-.65-5.06h12a2.69,2.69,0,0,0,0-5.37H37l-1.09-8.47a5.14,5.14,0,0,0-10.19,1.31L28.36,56a5.12,5.12,0,0,0,5,4.45,3.87,3.87,0,0,0,.49,0H50.56c0,.3,7.75,18,7.75,18a3.92,3.92,0,1,0,7.18-3.14Z"/><path class="cls-2" d="M38,81.64A18.07,18.07,0,0,1,25.43,50.57l-1-6a23.36,23.36,0,1,0,31.48,34l-2.24-6A18.06,18.06,0,0,1,38,81.64Z"/><path class="cls-2" d="M89.68,39.82H80.81L77,29.84H74.5v10h-8V13.73H80.11c3,0,5.34.7,7,2.11a7,7,0,0,1,2.49,5.57,8.39,8.39,0,0,1-.92,4A7.68,7.68,0,0,1,85,28.45l4.72,11.37ZM74.5,24.29h3.42a4.21,4.21,0,0,0,2.43-.63,2.15,2.15,0,0,0,.92-1.87c0-1.67-1-2.51-3.08-2.51H74.5Z"/></g></g></svg>