<svg xmlns="http://www.w3.org/2000/svg" viewBox="0 0 99.2 99.2"><defs><style>.cls-1{fill:#6a6c6b;}.cls-2{fill:#fff;}</style></defs><g id="Layer_2" data-name="Layer 2"><g id="Layer_1-2" data-name="Layer 1"><rect class="cls-1" width="99.2" height="99.2" rx="14.06"/><path class="cls-2" d="M62.73,48.58h-5a6.46,6.46,0,0,1-6-6.52,5.76,5.76,0,0,1,5.85-5.69h.18V31.48c-6,0-10.12,4.89-10.12,10.87A10.87,10.87,0,0,0,58.5,53.21h5A6.29,6.29,0,0,1,70,59.27,5.88,5.88,0,0,1,70,60v4.24h4.08V58.88C74.05,53,68.83,48.58,62.73,48.58Z"/><rect class="cls-2" x="69.97" y="67.5" width="4.07" height="9.78"/><rect class="cls-2" x="17" y="67.5" width="48.9" height="9.78"/><path class="cls-2" d="M71.93,40.54a10.88,10.88,0,0,0,3.26-7.76c0-6-4.08-10.86-10.11-10.86v4.83a6,6,0,0,1,0,12.07v4.89a13.06,13.06,0,0,1,13,13.11v7.42H82.2V57A18.12,18.12,0,0,0,71.93,40.54Z"/><rect class="cls-2" x="78.12" y="67.5" width="4.07" height="9.78"/></g></g></svg>